<?xml version="1.0" encoding="UTF-8" standalone="no"?>
<svg
        width="151.99001pt"
        height="237.32718pt"
        viewBox="0 0 151.99001 237.32718"
        version="1.1"
        id="svg55"
        sodipodi:docname="logo-pmb-side.svg"
        inkscape:version="1.2.2 (b0a8486541, 2022-12-01)"
        xmlns:inkscape="http://www.inkscape.org/namespaces/inkscape"
        xmlns:sodipodi="http://sodipodi.sourceforge.net/DTD/sodipodi-0.dtd"
        xmlns="http://www.w3.org/2000/svg"
>
  <defs
     id="defs59" />
  <sodipodi:namedview
     id="namedview57"
     pagecolor="#ffffff"
     bordercolor="#000000"
     borderopacity="0.25"
     inkscape:showpageshadow="2"
     inkscape:pageopacity="0.0"
     inkscape:pagecheckerboard="0"
     inkscape:deskcolor="#d1d1d1"
     inkscape:document-units="pt"
     showgrid="false"
     inkscape:zoom="2.229"
     inkscape:cx="102.51234"
     inkscape:cy="155.00224"
     inkscape:window-width="2560"
     inkscape:window-height="1364"
     inkscape:window-x="0"
     inkscape:window-y="0"
     inkscape:window-maximized="1"
     inkscape:current-layer="svg55" />
  <g
     id="#ff8141ff"
     transform="translate(-47.99,-8.76)">
    <path
       fill="#ff8141"
       opacity="1"
       d="m 83,8.76 c 18.65,10.65 37.16,21.53 55.83,32.12 -0.13,0.09 -0.39,0.27 -0.52,0.36 -18.22,10.55 -36.48,21.05 -54.72,31.57 l -0.52,0.34 C 82.98,67.74 82.94,62.32 83.03,56.91 82.96,55.4 84.13,54.26 84.74,52.97 88.31,47.11 88.99,39.66 86.78,33.18 85.9,30.67 84.32,28.49 83.15,26.12 82.77,20.35 83.12,14.55 83,8.76 Z"
       id="path19" />
    <path
       fill="#ff8141"
       opacity="1"
       d="m 60.46,29.57 c 6.02,-2.14 13.33,1.68 14.99,7.87 2.5,6.84 -3.06,15.18 -10.39,15.32 C 58.41,53.7 51.78,47.75 52.21,41 51.88,35.86 55.6,31.03 60.46,29.57 Z"
       id="path21" />
  </g>
  <g
     id="#fa3399ff"
     transform="translate(-47.99,-8.76)">
    <path
       fill="#fa3399"
       opacity="1"
       d="m 171.21,29.23 c 4.33,-1.67 9.65,-0.74 12.95,2.6 4.44,4.29 4.61,12.2 0.28,16.63 -3.49,3.92 -9.71,4.93 -14.3,2.44 -4.61,-2.31 -7.25,-7.92 -6.13,-12.94 0.66,-3.9 3.54,-7.27 7.2,-8.73 z"
       id="path24" />
    <path
       fill="#fa3399"
       opacity="1"
       d="m 138.31,41.24 c 0.13,-0.09 0.39,-0.27 0.52,-0.36 4.82,2.94 9.78,5.63 14.62,8.54 3.47,8.16 11.57,14.38 20.54,14.76 2.29,0.23 4.83,-0.42 6.85,0.98 4.41,2.56 8.82,5.12 13.25,7.66 -18.62,10.76 -37.18,21.61 -55.9,32.19 l 0.05,-0.57 c 0.07,-21.06 -0.09,-42.13 0.07,-63.2 z"
       id="path26" />
  </g>
  <g
     id="#0aacfcff"
     transform="translate(-47.99,-8.76)">
    <path
       fill="#0aacfc"
       opacity="1"
       d="m 83.07,73.15 0.52,-0.34 c 18.16,10.64 36.48,21 54.65,31.63 l -0.05,0.57 c -4.72,2.96 -9.62,5.64 -14.46,8.39 -9.34,-1.26 -19.19,3.44 -23.88,11.64 -0.88,1.32 -1.38,3 -2.84,3.81 -4.61,2.78 -9.33,5.38 -13.99,8.07 0,-21.25 -0.11,-42.51 0.05,-63.77 z"
       id="path29" />
    <path
       fill="#0aacfc"
       opacity="1"
       d="m 117.53,125.67 c 5.52,-1.43 11.87,1.6 13.95,6.97 1.3,3.52 1.19,7.73 -0.89,10.93 -2.62,4.58 -8.63,6.71 -13.6,5.13 -4,-1.2 -7.39,-4.61 -8.18,-8.76 -1.65,-6.09 2.59,-12.91 8.72,-14.27 z"
       id="path31" />
  </g>
  <g
     id="#050c30ff"
     transform="translate(-47.99,-8.76)">
    <path
       fill="#050c30"
       opacity="1"
       d="m 49.08,164 c 5,0.06 10.01,-0.13 15.01,0.08 2.97,0.42 6.28,1.04 8.25,3.54 3.11,4.15 2.51,10.94 -1.88,13.98 -3.36,2.7 -7.86,2.39 -11.88,2.99 0.16,2.69 -0.62,5.86 1.56,7.97 0.93,-0.01 2.79,-0.01 3.73,-0.02 -0.24,0.87 -0.7,2.6 -0.93,3.47 -4.65,-0.02 -9.3,0 -13.94,-0.02 -0.35,-1.1 -0.68,-2.2 -1.01,-3.3 0.76,-0.13 2.28,-0.4 3.04,-0.53 0.08,-8.24 0.36,-16.51 -0.16,-24.73 -0.72,-0.19 -2.16,-0.57 -2.88,-0.76 0.36,-0.89 0.72,-1.78 1.09,-2.67 m 9.53,3.45 c -0.02,4.55 -0.01,9.1 -0.01,13.65 2.46,0.02 5.66,-0.33 6.81,-2.89 1.26,-3.03 1.35,-7.01 -0.98,-9.56 -1.47,-1.75 -3.86,-1.08 -5.82,-1.2 z"
       id="path34" />
    <path
       fill="#050c30"
       opacity="1"
       d="m 133.99,164.01 c 3.03,0.01 6.07,-0.09 9.11,0.03 1.77,0.18 3.38,1.32 3.9,3.07 2.32,5.86 5.1,11.57 6.6,17.72 2.11,-7.1 5.09,-13.88 7.61,-20.83 3.6,0 7.2,-0.01 10.81,0.02 0.33,1.1 0.66,2.21 0.99,3.33 -0.76,0.1 -2.28,0.3 -3.05,0.4 -0.45,8.13 -0.23,16.3 -0.11,24.45 0.79,0.12 2.37,0.36 3.17,0.48 -0.26,0.83 -0.76,2.48 -1.01,3.31 -3.98,0.01 -7.96,0 -11.93,0.02 -0.24,-0.84 -0.72,-2.53 -0.95,-3.37 0.78,-0.08 2.34,-0.22 3.12,-0.3 0.61,-6.56 0.16,-13.18 0.26,-19.77 -2.84,6.25 -5.23,12.7 -7.97,18.99 -0.62,1.83 -2.69,2.1 -4.35,2.03 -3.02,-7.14 -5.99,-14.3 -9.18,-21.36 0.35,6.64 -0.19,13.3 0.36,19.93 0.91,0.13 2.73,0.4 3.64,0.53 -0.26,0.83 -0.77,2.48 -1.03,3.31 -3.33,0 -6.66,0 -9.99,0 -0.34,-1.12 -0.67,-2.24 -0.99,-3.35 0.81,-0.1 2.45,-0.3 3.26,-0.4 0.5,-4.07 0.2,-8.17 0.27,-12.25 -0.07,-4.09 0.23,-8.19 -0.27,-12.25 -0.82,-0.1 -2.46,-0.3 -3.27,-0.41 0.25,-0.83 0.75,-2.49 1,-3.33 z"
       id="path36" />
    <path
       fill="#050c30"
       opacity="1"
       d="m 77.14,175.14 c 2.47,-3.38 7.08,-3.86 10.95,-3.61 3.36,0 7.36,1.94 7.61,5.7 0.42,4.93 0,9.9 0.24,14.85 0.51,0.29 1.54,0.88 2.05,1.17 l 0.07,1.47 c -3,1.64 -6.78,1.94 -9.54,-0.35 -2.89,1.73 -6.6,2.36 -9.71,0.82 -2.94,-1.13 -4.67,-4.74 -3.5,-7.72 0.72,-2.31 2.91,-3.8 5.24,-4.11 2.58,-0.85 5.18,0.18 7.72,0.64 -0.23,-3.02 0.79,-6.46 -1.28,-9.04 -1.52,0.02 -3.04,0.03 -4.56,0.03 0.38,0.52 1.13,1.56 1.51,2.09 0.71,1.73 -0.81,2.89 -1.81,4.03 -1.68,-0.21 -3.85,0.26 -4.92,-1.42 -1.35,-1.18 -0.59,-3.17 -0.07,-4.55 m 6.81,11.7 c -0.74,1.45 -2.04,3.22 -0.74,4.78 1.2,1.64 3.33,0.69 5.01,0.75 0.04,-1.65 0.06,-3.29 0.07,-4.93 -1.44,-0.26 -2.89,-0.44 -4.34,-0.6 z"
       id="path38" />
    <path
       fill="#050c30"
       opacity="1"
       d="m 98.66,171.98 c 3.73,0.03 7.47,0.02 11.2,0.01 0.38,1.06 0.76,2.13 1.13,3.19 -1.72,0.13 -2.52,1.02 -2.38,2.69 1.29,4.59 2.97,9.07 4.61,13.54 0.87,-5.25 3,-10.34 3.02,-15.69 -0.57,-0.09 -1.73,-0.25 -2.31,-0.33 0.19,-0.85 0.58,-2.54 0.77,-3.39 3.1,0 6.21,0 9.31,0 0.33,1.07 0.65,2.15 0.96,3.23 -0.6,0.19 -1.81,0.55 -2.41,0.74 -2.33,6.91 -4.42,13.9 -6.69,20.84 -1.18,3.25 -2.52,6.7 -5.33,8.91 -2.76,2 -7.29,1.93 -9.36,-1.02 -1.22,-1.7 0.05,-3.56 0.74,-5.17 1.75,0.78 3.71,2.16 5.67,1.19 2.15,-0.92 3,-3.28 4.05,-5.17 -1.3,-0.05 -2.6,-0.09 -3.9,-0.11 -2.63,-6.6 -5.32,-13.16 -8.04,-19.72 -0.52,-0.11 -1.55,-0.34 -2.06,-0.46 0.31,-1.1 0.66,-2.2 1.02,-3.28 z"
       id="path40" />
    <path
       fill="#050c30"
       opacity="1"
       d="m 173.66,171.98 c 3.73,0.03 7.47,0.02 11.2,0.01 0.4,1.11 0.8,2.23 1.19,3.35 -0.45,0.07 -1.36,0.2 -1.81,0.26 l -0.8,1.5 c 1.26,4.87 3.05,9.59 4.78,14.31 0.87,-5.25 3,-10.34 3.03,-15.69 -0.58,-0.09 -1.74,-0.25 -2.32,-0.34 0.19,-0.84 0.58,-2.53 0.77,-3.38 3.1,0 6.2,0 9.3,0 0.25,0.79 0.74,2.39 0.98,3.19 -1.78,-0.08 -2.82,1.33 -3.15,2.88 -1.88,5.94 -3.77,11.87 -5.64,17.81 -1.25,3.56 -2.58,7.41 -5.65,9.84 -2.76,2 -7.29,1.93 -9.36,-1.02 -1.22,-1.7 0.05,-3.56 0.74,-5.17 1.75,0.78 3.71,2.16 5.68,1.19 2.14,-0.92 2.99,-3.28 4.04,-5.17 -1.3,-0.05 -2.6,-0.09 -3.9,-0.11 -2.63,-6.6 -5.32,-13.16 -8.04,-19.72 -0.52,-0.11 -1.55,-0.34 -2.06,-0.46 0.31,-1.1 0.66,-2.2 1.02,-3.28 z"
       id="path42" />
    <path
       fill="#050c30"
       opacity="1"
       d="m 125,201.24 c 3.12,-1.36 6.49,-2.56 9.94,-2.13 0.47,1.59 0.47,3.25 0.48,4.89 -0.03,9.04 -0.03,18.08 0,27.12 0.64,0.52 1.93,1.54 2.58,2.06 -2.26,3.04 -6.95,3.09 -9.56,0.48 -2.51,2.23 -6.23,2.26 -9.24,1.2 -3.09,-1.4 -5.26,-4.44 -5.71,-7.78 -0.58,-4.36 -0.1,-9.25 2.99,-12.63 1.73,-2.22 4.44,-3.22 7.06,-3.93 1.58,0.01 3.16,0.01 4.74,0.01 -0.11,-2.19 -0.17,-4.37 -0.29,-6.56 -1.28,-0.66 -3.73,-0.68 -2.99,-2.73 m -3.61,24.89 c 0.23,3.27 3.27,6.74 6.76,5 -0.27,-5.65 0.52,-11.37 -0.5,-16.95 -1.25,-0.11 -2.49,-0.2 -3.73,-0.27 -3.36,3.07 -2.97,8.1 -2.53,12.22 z"
       id="path44" />
    <path
       fill="#050c30"
       opacity="1"
       d="m 152,201.24 c 3.11,-1.36 6.49,-2.55 9.94,-2.13 0.63,2.24 0.44,4.59 0.47,6.89 -0.01,8.37 -0.03,16.75 0.01,25.12 0.64,0.52 1.93,1.54 2.58,2.06 -2.26,3.04 -6.95,3.09 -9.56,0.48 -3.68,3.09 -9.77,2.26 -12.73,-1.46 -2.84,-3.49 -2.76,-8.4 -1.95,-12.61 1.11,-4.67 5.09,-8.22 9.78,-9.07 1.58,0.01 3.16,0.01 4.74,0.01 -0.11,-2.19 -0.17,-4.37 -0.29,-6.56 -1.28,-0.66 -3.73,-0.68 -2.99,-2.73 m -3.61,24.89 c 0.23,3.27 3.27,6.74 6.76,5 -0.27,-5.64 0.51,-11.36 -0.49,-16.94 -1.25,-0.11 -2.49,-0.21 -3.73,-0.29 -3.37,3.08 -2.98,8.1 -2.54,12.23 z"
       id="path46" />
    <path
       fill="#050c30"
       opacity="1"
       d="m 58.19,203.07 c 6.73,0.19 13.79,-1.08 20.24,1.43 3.64,1.32 5.35,5.93 3.47,9.29 -0.97,2.04 -3.06,3.11 -5.05,3.92 2.42,0.74 5.11,1.51 6.6,3.74 2.2,4.18 0.65,10.38 -4.05,12.07 -6.83,2.61 -14.28,1.06 -21.4,1.48 -0.25,-0.81 -0.76,-2.44 -1.02,-3.26 1.74,0.19 3.49,-0.66 3.01,-2.65 0.03,-7.41 0.02,-14.82 -0.01,-22.23 -1.03,-0.47 -2.05,-0.93 -3.08,-1.38 0.32,-0.6 0.97,-1.81 1.29,-2.41 m 9.42,3.37 c -0.02,3.37 -0.02,6.75 0,10.12 2.25,-0.02 4.89,0.37 6.53,-1.56 1.52,-2.16 1.49,-5.65 -0.5,-7.52 -1.65,-1.53 -4.01,-0.88 -6.03,-1.04 m -0.01,13.49 c 0,3.87 -0.01,7.75 0.01,11.63 2.55,-0.11 5.77,0.56 7.48,-1.9 1.53,-2.47 1.21,-5.94 -0.63,-8.14 -1.88,-1.65 -4.52,-1.53 -6.86,-1.59 z"
       id="path48" />
    <path
       fill="#050c30"
       opacity="1"
       d="m 86.26,213.02 c 2.47,-2.82 6.55,-2.51 9.94,-2.5 1.31,6.7 -0.73,13.77 1.15,20.35 0.59,0.04 1.77,0.12 2.36,0.16 0.56,-0.45 1.7,-1.34 2.27,-1.79 0.04,-4.78 0.01,-9.56 0.02,-14.34 -1.07,-0.6 -2.13,-1.21 -3.18,-1.82 2.57,-3.01 6.93,-2.66 10.49,-2.39 0.46,6.83 -0.19,13.69 0.38,20.52 0.9,0.54 1.8,1.09 2.69,1.65 -2.7,2.56 -8.15,3.44 -10.16,-0.4 -2.32,2.07 -5.68,3.32 -8.72,2.2 -2.52,-0.69 -4.2,-3.18 -4.3,-5.72 -0.18,-4.65 -0.01,-9.31 -0.07,-13.95 -0.97,-0.65 -1.92,-1.3 -2.87,-1.97 z"
       id="path50" />
    <path
       fill="#050c30"
       opacity="1"
       d="m 164.69,210.98 c 3.72,0.03 7.45,0.02 11.17,0.01 0.4,1.11 0.8,2.23 1.19,3.35 -0.45,0.07 -1.36,0.2 -1.81,0.26 l -0.8,1.49 c 1.26,4.88 3.05,9.6 4.78,14.32 0.89,-5.24 2.95,-10.32 3.05,-15.66 -0.58,-0.1 -1.75,-0.28 -2.34,-0.38 0.2,-0.84 0.58,-2.52 0.77,-3.37 3.1,0 6.2,0 9.31,0 0.24,0.79 0.73,2.39 0.97,3.19 -1.78,-0.08 -2.82,1.33 -3.16,2.89 -1.87,5.93 -3.76,11.86 -5.63,17.8 -1.25,3.56 -2.58,7.4 -5.64,9.83 -2.76,2.01 -7.29,1.94 -9.36,-1.01 -1.23,-1.69 0.04,-3.56 0.73,-5.17 1.58,0.68 3.17,1.86 5,1.43 2.54,-0.64 3.61,-3.32 4.72,-5.41 -1.3,-0.05 -2.6,-0.09 -3.9,-0.11 -2.62,-6.59 -5.32,-13.15 -8.03,-19.71 -0.52,-0.12 -1.57,-0.38 -2.09,-0.5 0.33,-1.1 0.69,-2.18 1.07,-3.25 z"
       id="path52" />
  </g>
</svg>
